<svg version="1.1" id="Layer_1" xmlns="http://www.w3.org/2000/svg" xmlns:xlink="http://www.w3.org/1999/xlink" x="0px" y="0px"
	 width="100%" viewBox="0 0 294 294" enable-background="new 0 0 294 294" xml:space="preserve">
<path fill="#000000" opacity="1.000000" stroke="none" 
	d="
M162.000000,295.000000 
	C108.000008,295.000000 54.500019,295.000000 1.000021,295.000000 
	C1.000014,197.000031 1.000014,99.000053 1.000007,1.000061 
	C98.999962,1.000041 196.999924,1.000041 294.999908,1.000020 
	C294.999939,98.999939 294.999939,196.999878 294.999969,294.999908 
	C250.833328,295.000000 206.666672,295.000000 162.000000,295.000000 
M71.500168,50.000755 
	C66.667252,50.000767 61.817707,50.259758 57.004642,49.950634 
	C44.243717,49.131042 38.871170,57.925846 37.098389,67.585739 
	C36.146324,72.773544 41.441116,76.814392 45.996990,74.259186 
	C47.959576,73.158455 49.454922,70.482559 50.245293,68.204079 
	C51.498032,64.592690 53.185642,62.896645 57.339352,62.910709 
	C100.169083,63.055706 142.999573,63.036476 185.829620,62.952728 
	C191.114334,62.942398 194.794479,65.392731 195.748016,70.143356 
	C196.655853,74.666283 196.300583,79.540024 195.907394,84.209572 
	C194.399841,102.113182 192.531219,119.986572 191.050140,137.892151 
	C190.349731,146.359695 184.748322,153.626480 175.356277,153.214249 
	C158.223862,152.462280 141.034821,153.000427 123.869408,153.000534 
	C98.037956,153.000702 72.205315,152.856339 46.375584,153.067001 
	C34.821777,153.161240 29.667728,157.319489 28.965521,168.589783 
	C28.699121,172.865479 28.502394,177.187485 27.706774,181.380783 
	C24.626085,197.617554 32.371956,214.573776 47.295761,222.757004 
	C56.075401,227.571198 65.457649,227.093246 74.866669,226.969925 
	C77.829956,226.931076 79.198975,227.499924 80.302467,230.969147 
	C83.642998,241.471252 94.324478,246.764969 103.588646,245.754700 
	C114.976730,244.512802 123.384544,238.273087 127.710129,226.999527 
	C144.552231,226.999527 161.374680,227.117279 178.193069,226.909103 
	C181.963959,226.862442 183.765411,227.970978 184.950455,231.617279 
	C188.449707,242.384048 199.166855,246.483032 207.466995,245.800018 
	C218.022064,244.931412 225.838242,239.286682 230.797363,229.722488 
	C231.597916,228.178558 233.481949,226.524338 235.122864,226.191452 
	C252.987045,222.567566 267.187347,204.392929 267.125427,183.796432 
	C267.100250,175.416855 268.234680,167.003250 269.272125,158.658676 
	C270.596039,148.009918 270.746918,137.771561 265.495178,127.803345 
	C257.340118,112.324371 249.607773,96.614975 242.017441,80.848618 
	C235.808228,67.951035 226.323105,60.810608 211.579254,62.036678 
	C208.795959,62.268131 206.975693,61.374203 205.510422,58.990070 
	C201.636765,52.687237 195.817459,49.975918 188.491623,49.983120 
	C149.827805,50.021118 111.163933,50.000828 71.500168,50.000755 
M148.910950,115.036430 
	C150.743805,115.020836 152.582916,115.097137 154.408386,114.972992 
	C160.758179,114.541168 163.156204,110.882927 162.998840,101.990822 
	C162.908630,96.894585 160.849762,95.214897 154.462234,94.995728 
	C152.714676,94.935776 150.968811,94.826401 148.999756,94.728676 
	C148.999756,92.122581 149.005371,90.132210 148.998718,88.141869 
	C148.978622,82.131981 147.238449,80.202515 141.666916,80.002647 
	C133.629684,79.714317 130.472107,81.940575 129.967606,88.033081 
	C129.782501,90.268517 129.197861,92.470879 128.818695,94.560364 
	C114.952744,95.739830 114.078590,96.533043 113.109276,104.235695 
	C112.775612,106.887131 112.728233,111.242958 114.181091,112.120819 
	C117.753288,114.279221 122.272865,114.869728 127.000969,116.264778 
	C127.000969,118.130028 126.710091,120.645706 127.092026,123.054718 
	C127.403572,125.019760 128.212173,128.250702 129.334396,128.498108 
	C133.170670,129.343826 137.347565,129.757690 141.194214,129.122772 
	C144.873520,128.515488 145.853943,125.051903 146.096863,121.412872 
	C146.238525,119.290703 147.359085,117.233864 148.910950,115.036430 
M78.205353,80.000183 
	C72.886848,80.000168 67.568344,79.999916 62.249840,80.000175 
	C52.111443,80.000664 41.971458,79.898140 31.835442,80.053802 
	C27.870409,80.114693 25.469147,82.685844 25.085196,86.475647 
	C24.673578,90.538521 27.418047,92.984222 31.809420,92.990662 
	C47.931103,93.014282 64.053017,93.033142 80.174263,92.946106 
	C81.698189,92.937874 83.996681,92.640373 84.578407,91.666496 
	C85.806343,89.610809 86.998749,86.877258 86.640083,84.677025 
	C86.029068,80.928787 82.805466,79.709198 78.205353,80.000183 
M25.106226,109.894218 
	C25.219252,115.666458 27.330139,117.911110 33.254925,117.965355 
	C44.753120,118.070641 56.253170,118.035652 67.751999,117.974106 
	C71.590355,117.953568 75.029907,114.676476 74.985039,111.354538 
	C74.930153,107.289818 72.446884,105.020439 67.884354,105.009857 
	C56.051949,104.982414 44.217426,105.121605 32.388203,104.925644 
	C28.909431,104.868027 26.643976,105.930069 25.106226,109.894218 
M36.642677,129.000122 
	C35.147766,129.000412 33.651413,128.958435 32.158226,129.009308 
	C28.412703,129.136917 24.959332,132.357040 25.003819,135.635910 
	C25.058912,139.696487 27.520479,141.977600 31.971226,141.992844 
	C39.611774,142.019012 47.252541,142.019318 54.893093,141.993393 
	C60.270554,141.975143 62.949120,139.825089 62.971256,135.598709 
	C62.989292,132.154160 59.107258,129.059830 54.547268,129.014084 
	C48.900410,128.957443 43.252548,129.000275 36.642677,129.000122 
z"/>
<path fill="#43A047" opacity="1.000000" stroke="none" 
	d="
M72.000122,50.000755 
	C111.163933,50.000828 149.827805,50.021118 188.491623,49.983120 
	C195.817459,49.975918 201.636765,52.687237 205.510422,58.990070 
	C206.975693,61.374203 208.795959,62.268131 211.579254,62.036678 
	C226.323105,60.810608 235.808228,67.951035 242.017441,80.848618 
	C249.607773,96.614975 257.340118,112.324371 265.495178,127.803345 
	C270.746918,137.771561 270.596039,148.009918 269.272125,158.658676 
	C268.234680,167.003250 267.100250,175.416855 267.125427,183.796432 
	C267.187347,204.392929 252.987045,222.567566 235.122864,226.191452 
	C233.481949,226.524338 231.597916,228.178558 230.797363,229.722488 
	C225.838242,239.286682 218.022064,244.931412 207.466995,245.800018 
	C199.166855,246.483032 188.449707,242.384048 184.950455,231.617279 
	C183.765411,227.970978 181.963959,226.862442 178.193069,226.909103 
	C161.374680,227.117279 144.552231,226.999527 127.710129,226.999527 
	C123.384544,238.273087 114.976730,244.512802 103.588646,245.754700 
	C94.324478,246.764969 83.642998,241.471252 80.302467,230.969147 
	C79.198975,227.499924 77.829956,226.931076 74.866669,226.969925 
	C65.457649,227.093246 56.075401,227.571198 47.295761,222.757004 
	C32.371956,214.573776 24.626085,197.617554 27.706774,181.380783 
	C28.502394,177.187485 28.699121,172.865479 28.965521,168.589783 
	C29.667728,157.319489 34.821777,153.161240 46.375584,153.067001 
	C72.205315,152.856339 98.037956,153.000702 123.869408,153.000534 
	C141.034821,153.000427 158.223862,152.462280 175.356277,153.214249 
	C184.748322,153.626480 190.349731,146.359695 191.050140,137.892151 
	C192.531219,119.986572 194.399841,102.113182 195.907394,84.209572 
	C196.300583,79.540024 196.655853,74.666283 195.748016,70.143356 
	C194.794479,65.392731 191.114334,62.942398 185.829620,62.952728 
	C142.999573,63.036476 100.169083,63.055706 57.339352,62.910709 
	C53.185642,62.896645 51.498032,64.592690 50.245293,68.204079 
	C49.454922,70.482559 47.959576,73.158455 45.996990,74.259186 
	C41.441116,76.814392 36.146324,72.773544 37.098389,67.585739 
	C38.871170,57.925846 44.243717,49.131042 57.004642,49.950634 
	C61.817707,50.259758 66.667252,50.000767 72.000122,50.000755 
M210.269257,75.453773 
	C209.466400,79.758812 208.368637,84.032890 207.912979,88.374367 
	C206.165100,105.028618 204.232941,121.678314 203.113190,138.379562 
	C201.970322,155.425827 191.372330,165.958832 174.127487,165.962753 
	C132.807159,165.972137 91.486832,165.965347 50.166508,165.968262 
	C48.500603,165.968369 46.613953,165.514511 45.226429,166.144684 
	C43.606319,166.880508 41.429508,168.434769 41.224297,169.879669 
	C40.433163,175.449966 40.373257,181.121262 39.967045,186.749603 
	C38.793159,203.014862 55.045624,215.444656 67.980980,215.189285 
	C75.513039,215.040573 80.861214,214.210922 85.606560,206.834793 
	C95.380051,191.642914 123.200821,193.574829 127.394753,211.747910 
	C128.140289,214.978424 130.731827,214.926682 133.325058,214.922150 
	C148.486893,214.895676 163.649826,214.815186 178.810013,214.976715 
	C182.702240,215.018173 185.050751,213.969849 187.122269,210.315002 
	C196.092575,194.488251 214.583878,193.621338 224.372986,201.480530 
	C228.192703,204.547195 230.627533,209.338821 233.803009,213.488327 
	C244.253571,210.854507 251.614365,202.919586 253.036423,192.315979 
	C253.719070,187.225922 254.231445,182.113052 254.911377,177.022598 
	C255.397995,173.379333 254.038193,171.839218 250.250687,171.955505 
	C244.091843,172.144547 237.922760,172.020447 231.758133,171.995682 
	C221.156296,171.953079 213.701797,165.118622 214.135971,154.622772 
	C214.656296,142.044052 215.849686,129.469498 217.342621,116.963699 
	C218.211288,109.687195 224.305237,105.146179 231.752457,104.985855 
	C233.807724,104.941597 235.864731,104.979126 239.049469,104.979126 
	C235.397964,97.715401 232.164948,91.748528 229.359146,85.587105 
	C225.719437,77.594414 219.938675,73.787132 210.269257,75.453773 
M257.013885,144.796326 
	C257.008362,144.132187 257.218109,143.369034 256.965027,142.818756 
	C253.231003,134.700378 249.505798,126.575584 245.552048,118.564072 
	C245.129669,117.708229 243.317566,117.258240 242.098373,117.135834 
	C239.795074,116.904594 237.440796,117.203003 235.131592,117.003975 
	C230.546646,116.608803 229.137878,118.755798 228.912094,123.138374 
	C228.426910,132.556168 227.562775,141.962296 226.568192,151.342896 
	C226.013123,156.578079 228.102783,159.615097 233.392410,159.906387 
	C236.539352,160.079681 239.705093,160.043106 242.858109,159.952011 
	C256.458740,159.559189 257.215302,163.507431 257.013885,144.796326 
z"/>
<path fill="#43A047" opacity="1.000000" stroke="none" 
	d="
M148.475098,115.092033 
	C147.359085,117.233864 146.238525,119.290703 146.096863,121.412872 
	C145.853943,125.051903 144.873520,128.515488 141.194214,129.122772 
	C137.347565,129.757690 133.170670,129.343826 129.334396,128.498108 
	C128.212173,128.250702 127.403572,125.019760 127.092026,123.054718 
	C126.710091,120.645706 127.000969,118.130028 127.000969,116.264778 
	C122.272865,114.869728 117.753288,114.279221 114.181091,112.120819 
	C112.728233,111.242958 112.775612,106.887131 113.109276,104.235695 
	C114.078590,96.533043 114.952744,95.739830 128.818695,94.560364 
	C129.197861,92.470879 129.782501,90.268517 129.967606,88.033081 
	C130.472107,81.940575 133.629684,79.714317 141.666916,80.002647 
	C147.238449,80.202515 148.978622,82.131981 148.998718,88.141869 
	C149.005371,90.132210 148.999756,92.122581 148.999756,94.728676 
	C150.968811,94.826401 152.714676,94.935776 154.462234,94.995728 
	C160.849762,95.214897 162.908630,96.894585 162.998840,101.990822 
	C163.156204,110.882927 160.758179,114.541168 154.408386,114.972992 
	C152.582916,115.097137 150.743805,115.020836 148.475098,115.092033 
z"/>
<path fill="#7ED957" opacity="1.000000" stroke="none" 
	d="
M78.666748,80.000259 
	C82.805466,79.709198 86.029068,80.928787 86.640083,84.677025 
	C86.998749,86.877258 85.806343,89.610809 84.578407,91.666496 
	C83.996681,92.640373 81.698189,92.937874 80.174263,92.946106 
	C64.053017,93.033142 47.931103,93.014282 31.809420,92.990662 
	C27.418047,92.984222 24.673578,90.538521 25.085196,86.475647 
	C25.469147,82.685844 27.870409,80.114693 31.835442,80.053802 
	C41.971458,79.898140 52.111443,80.000664 62.249840,80.000175 
	C67.568344,79.999916 72.886848,80.000168 78.666748,80.000259 
z"/>
<path fill="#43A047" opacity="1.000000" stroke="none" 
	d="
M25.256569,109.520370 
	C26.643976,105.930069 28.909431,104.868027 32.388203,104.925644 
	C44.217426,105.121605 56.051949,104.982414 67.884354,105.009857 
	C72.446884,105.020439 74.930153,107.289818 74.985039,111.354538 
	C75.029907,114.676476 71.590355,117.953568 67.751999,117.974106 
	C56.253170,118.035652 44.753120,118.070641 33.254925,117.965355 
	C27.330139,117.911110 25.219252,115.666458 25.256569,109.520370 
z"/>
<path fill="#7ED957" opacity="1.000000" stroke="none" 
	d="
M37.123901,129.000122 
	C43.252548,129.000275 48.900410,128.957443 54.547268,129.014084 
	C59.107258,129.059830 62.989292,132.154160 62.971256,135.598709 
	C62.949120,139.825089 60.270554,141.975143 54.893093,141.993393 
	C47.252541,142.019318 39.611774,142.019012 31.971226,141.992844 
	C27.520479,141.977600 25.058912,139.696487 25.003819,135.635910 
	C24.959332,132.357040 28.412703,129.136917 32.158226,129.009308 
	C33.651413,128.958435 35.147766,129.000412 37.123901,129.000122 
z"/>
<path fill="#7ED957" opacity="1.000000" stroke="none" 
	d="
M210.672119,75.318497 
	C219.938675,73.787132 225.719437,77.594414 229.359146,85.587105 
	C232.164948,91.748528 235.397964,97.715401 239.049469,104.979126 
	C235.864731,104.979126 233.807724,104.941597 231.752457,104.985855 
	C224.305237,105.146179 218.211288,109.687195 217.342621,116.963699 
	C215.849686,129.469498 214.656296,142.044052 214.135971,154.622772 
	C213.701797,165.118622 221.156296,171.953079 231.758133,171.995682 
	C237.922760,172.020447 244.091843,172.144547 250.250687,171.955505 
	C254.038193,171.839218 255.397995,173.379333 254.911377,177.022598 
	C254.231445,182.113052 253.719070,187.225922 253.036423,192.315979 
	C251.614365,202.919586 244.253571,210.854507 233.803009,213.488327 
	C230.627533,209.338821 228.192703,204.547195 224.372986,201.480530 
	C214.583878,193.621338 196.092575,194.488251 187.122269,210.315002 
	C185.050751,213.969849 182.702240,215.018173 178.810013,214.976715 
	C163.649826,214.815186 148.486893,214.895676 133.325058,214.922150 
	C130.731827,214.926682 128.140289,214.978424 127.394753,211.747910 
	C123.200821,193.574829 95.380051,191.642914 85.606560,206.834793 
	C80.861214,214.210922 75.513039,215.040573 67.980980,215.189285 
	C55.045624,215.444656 38.793159,203.014862 39.967045,186.749603 
	C40.373257,181.121262 40.433163,175.449966 41.224297,169.879669 
	C41.429508,168.434769 43.606319,166.880508 45.226429,166.144684 
	C46.613953,165.514511 48.500603,165.968369 50.166508,165.968262 
	C91.486832,165.965347 132.807159,165.972137 174.127487,165.962753 
	C191.372330,165.958832 201.970322,155.425827 203.113190,138.379562 
	C204.232941,121.678314 206.165100,105.028618 207.912979,88.374367 
	C208.368637,84.032890 209.466400,79.758812 210.672119,75.318497 
z"/>
<path fill="#7ED957" opacity="1.000000" stroke="none" 
	d="
M257.010284,145.256897 
	C257.215302,163.507431 256.458740,159.559189 242.858109,159.952011 
	C239.705093,160.043106 236.539352,160.079681 233.392410,159.906387 
	C228.102783,159.615097 226.013123,156.578079 226.568192,151.342896 
	C227.562775,141.962296 228.426910,132.556168 228.912094,123.138374 
	C229.137878,118.755798 230.546646,116.608803 235.131592,117.003975 
	C237.440796,117.203003 239.795074,116.904594 242.098373,117.135834 
	C243.317566,117.258240 245.129669,117.708229 245.552048,118.564072 
	C249.505798,126.575584 253.231003,134.700378 256.965027,142.818756 
	C257.218109,143.369034 257.008362,144.132187 257.010284,145.256897 
z"/>
</svg>